<mxfile host="app.diagrams.net" modified="2022-09-09T02:21:11.566Z" agent="5.0 (Macintosh; Intel Mac OS X 10_15_7) AppleWebKit/537.36 (KHTML, like Gecko) Chrome/104.0.0.0 Safari/537.36" etag="LClKqiRMkejrXnaLd-05" version="20.3.0" type="github">
  <diagram id="qr23sLFIzVyWFJ-7CR_h" name="第 1 页">
    <mxGraphModel dx="1426" dy="769" grid="1" gridSize="10" guides="1" tooltips="1" connect="1" arrows="1" fold="1" page="1" pageScale="1" pageWidth="827" pageHeight="1169" math="0" shadow="0">
      <root>
        <mxCell id="0" />
        <mxCell id="1" parent="0" />
        <mxCell id="4CdSf621KdFMTNXyTcWF-39" value="" style="rounded=0;whiteSpace=wrap;html=1;dashed=1;strokeWidth=2;fillColor=none;" vertex="1" parent="1">
          <mxGeometry x="390" y="160" width="180" height="470" as="geometry" />
        </mxCell>
        <mxCell id="4CdSf621KdFMTNXyTcWF-51" style="edgeStyle=orthogonalEdgeStyle;rounded=0;orthogonalLoop=1;jettySize=auto;html=1;exitX=1;exitY=0.5;exitDx=0;exitDy=0;entryX=0;entryY=0.5;entryDx=0;entryDy=0;fontSize=14;strokeWidth=2;" edge="1" parent="1" source="4CdSf621KdFMTNXyTcWF-28" target="4CdSf621KdFMTNXyTcWF-50">
          <mxGeometry relative="1" as="geometry" />
        </mxCell>
        <mxCell id="4CdSf621KdFMTNXyTcWF-28" value="" style="rounded=0;whiteSpace=wrap;html=1;fillColor=none;dashed=1;strokeWidth=2;" vertex="1" parent="1">
          <mxGeometry x="410" y="180" width="140" height="170" as="geometry" />
        </mxCell>
        <mxCell id="4CdSf621KdFMTNXyTcWF-38" style="edgeStyle=orthogonalEdgeStyle;rounded=0;orthogonalLoop=1;jettySize=auto;html=1;entryX=0;entryY=0.5;entryDx=0;entryDy=0;strokeWidth=2;" edge="1" parent="1" source="4CdSf621KdFMTNXyTcWF-18" target="4CdSf621KdFMTNXyTcWF-31">
          <mxGeometry relative="1" as="geometry" />
        </mxCell>
        <mxCell id="4CdSf621KdFMTNXyTcWF-18" value="" style="rounded=0;whiteSpace=wrap;html=1;fillColor=none;dashed=1;strokeWidth=2;" vertex="1" parent="1">
          <mxGeometry x="210" y="430" width="140" height="170" as="geometry" />
        </mxCell>
        <mxCell id="4CdSf621KdFMTNXyTcWF-19" style="edgeStyle=orthogonalEdgeStyle;rounded=0;orthogonalLoop=1;jettySize=auto;html=1;entryX=0;entryY=0.5;entryDx=0;entryDy=0;strokeWidth=2;" edge="1" parent="1" source="4CdSf621KdFMTNXyTcWF-1" target="4CdSf621KdFMTNXyTcWF-8">
          <mxGeometry relative="1" as="geometry" />
        </mxCell>
        <mxCell id="4CdSf621KdFMTNXyTcWF-20" style="edgeStyle=orthogonalEdgeStyle;rounded=0;orthogonalLoop=1;jettySize=auto;html=1;entryX=0;entryY=0.5;entryDx=0;entryDy=0;strokeWidth=2;" edge="1" parent="1" source="4CdSf621KdFMTNXyTcWF-1" target="4CdSf621KdFMTNXyTcWF-18">
          <mxGeometry relative="1" as="geometry" />
        </mxCell>
        <mxCell id="4CdSf621KdFMTNXyTcWF-1" value="Review" style="rounded=0;whiteSpace=wrap;html=1;fontSize=16;" vertex="1" parent="1">
          <mxGeometry x="30" y="360" width="120" height="60" as="geometry" />
        </mxCell>
        <mxCell id="4CdSf621KdFMTNXyTcWF-2" value="Restaurant 1" style="rounded=0;whiteSpace=wrap;html=1;" vertex="1" parent="1">
          <mxGeometry x="220" y="190" width="120" height="30" as="geometry" />
        </mxCell>
        <mxCell id="4CdSf621KdFMTNXyTcWF-4" value="Restaurant 2" style="rounded=0;whiteSpace=wrap;html=1;" vertex="1" parent="1">
          <mxGeometry x="220" y="230" width="120" height="30" as="geometry" />
        </mxCell>
        <mxCell id="4CdSf621KdFMTNXyTcWF-5" value="Restaurant m" style="rounded=0;whiteSpace=wrap;html=1;" vertex="1" parent="1">
          <mxGeometry x="220" y="310" width="120" height="30" as="geometry" />
        </mxCell>
        <mxCell id="4CdSf621KdFMTNXyTcWF-6" value="" style="shape=image;html=1;verticalAlign=top;verticalLabelPosition=bottom;labelBackgroundColor=#ffffff;imageAspect=0;aspect=fixed;image=https://cdn1.iconfinder.com/data/icons/ionicons-sharp-vol-1/512/ellipsis-vertical-sharp-128.png" vertex="1" parent="1">
          <mxGeometry x="265" y="270" width="30" height="30" as="geometry" />
        </mxCell>
        <mxCell id="4CdSf621KdFMTNXyTcWF-30" value="" style="edgeStyle=orthogonalEdgeStyle;rounded=0;orthogonalLoop=1;jettySize=auto;html=1;strokeWidth=2;" edge="1" parent="1" source="4CdSf621KdFMTNXyTcWF-8" target="4CdSf621KdFMTNXyTcWF-28">
          <mxGeometry relative="1" as="geometry" />
        </mxCell>
        <mxCell id="4CdSf621KdFMTNXyTcWF-8" value="" style="rounded=0;whiteSpace=wrap;html=1;fillColor=none;dashed=1;strokeWidth=2;" vertex="1" parent="1">
          <mxGeometry x="210" y="180" width="140" height="170" as="geometry" />
        </mxCell>
        <mxCell id="4CdSf621KdFMTNXyTcWF-14" value="User 1" style="rounded=0;whiteSpace=wrap;html=1;" vertex="1" parent="1">
          <mxGeometry x="220" y="440" width="120" height="30" as="geometry" />
        </mxCell>
        <mxCell id="4CdSf621KdFMTNXyTcWF-15" value="User 2" style="rounded=0;whiteSpace=wrap;html=1;" vertex="1" parent="1">
          <mxGeometry x="220" y="480" width="120" height="30" as="geometry" />
        </mxCell>
        <mxCell id="4CdSf621KdFMTNXyTcWF-16" value="User n" style="rounded=0;whiteSpace=wrap;html=1;" vertex="1" parent="1">
          <mxGeometry x="220" y="560" width="120" height="30" as="geometry" />
        </mxCell>
        <mxCell id="4CdSf621KdFMTNXyTcWF-17" value="" style="shape=image;html=1;verticalAlign=top;verticalLabelPosition=bottom;labelBackgroundColor=#ffffff;imageAspect=0;aspect=fixed;image=https://cdn1.iconfinder.com/data/icons/ionicons-sharp-vol-1/512/ellipsis-vertical-sharp-128.png" vertex="1" parent="1">
          <mxGeometry x="265" y="520" width="30" height="30" as="geometry" />
        </mxCell>
        <mxCell id="4CdSf621KdFMTNXyTcWF-21" value="Restaurant reviews" style="text;html=1;align=center;verticalAlign=middle;resizable=0;points=[];autosize=1;strokeColor=none;fillColor=none;fontSize=14;" vertex="1" parent="1">
          <mxGeometry x="210" y="350" width="140" height="30" as="geometry" />
        </mxCell>
        <mxCell id="4CdSf621KdFMTNXyTcWF-22" value="User reviews" style="text;html=1;align=center;verticalAlign=middle;resizable=0;points=[];autosize=1;strokeColor=none;fillColor=none;fontSize=14;" vertex="1" parent="1">
          <mxGeometry x="230" y="600" width="100" height="30" as="geometry" />
        </mxCell>
        <mxCell id="4CdSf621KdFMTNXyTcWF-24" value="Restaurant 1" style="rounded=0;whiteSpace=wrap;html=1;" vertex="1" parent="1">
          <mxGeometry x="420" y="190" width="120" height="30" as="geometry" />
        </mxCell>
        <mxCell id="4CdSf621KdFMTNXyTcWF-25" value="Restaurant 2" style="rounded=0;whiteSpace=wrap;html=1;fillColor=#f5f5f5;fontColor=#333333;strokeColor=#666666;" vertex="1" parent="1">
          <mxGeometry x="420" y="230" width="120" height="30" as="geometry" />
        </mxCell>
        <mxCell id="4CdSf621KdFMTNXyTcWF-26" value="Restaurant m" style="rounded=0;whiteSpace=wrap;html=1;fillColor=#f5f5f5;fontColor=#333333;strokeColor=#666666;" vertex="1" parent="1">
          <mxGeometry x="420" y="310" width="120" height="30" as="geometry" />
        </mxCell>
        <mxCell id="4CdSf621KdFMTNXyTcWF-27" value="" style="shape=image;html=1;verticalAlign=top;verticalLabelPosition=bottom;labelBackgroundColor=#ffffff;imageAspect=0;aspect=fixed;image=https://cdn1.iconfinder.com/data/icons/ionicons-sharp-vol-1/512/ellipsis-vertical-sharp-128.png" vertex="1" parent="1">
          <mxGeometry x="465" y="270" width="30" height="30" as="geometry" />
        </mxCell>
        <mxCell id="4CdSf621KdFMTNXyTcWF-29" value="Restaurant reviews" style="text;html=1;align=center;verticalAlign=middle;resizable=0;points=[];autosize=1;strokeColor=none;fillColor=none;fontSize=14;" vertex="1" parent="1">
          <mxGeometry x="410" y="350" width="140" height="30" as="geometry" />
        </mxCell>
        <mxCell id="4CdSf621KdFMTNXyTcWF-52" style="edgeStyle=orthogonalEdgeStyle;rounded=0;orthogonalLoop=1;jettySize=auto;html=1;exitX=1;exitY=0.5;exitDx=0;exitDy=0;entryX=0;entryY=0.5;entryDx=0;entryDy=0;fontSize=14;strokeWidth=2;" edge="1" parent="1" source="4CdSf621KdFMTNXyTcWF-31" target="4CdSf621KdFMTNXyTcWF-50">
          <mxGeometry relative="1" as="geometry" />
        </mxCell>
        <mxCell id="4CdSf621KdFMTNXyTcWF-31" value="" style="rounded=0;whiteSpace=wrap;html=1;fillColor=none;dashed=1;strokeWidth=2;" vertex="1" parent="1">
          <mxGeometry x="410" y="430" width="140" height="170" as="geometry" />
        </mxCell>
        <mxCell id="4CdSf621KdFMTNXyTcWF-32" value="User 1" style="rounded=0;whiteSpace=wrap;html=1;" vertex="1" parent="1">
          <mxGeometry x="420" y="440" width="120" height="30" as="geometry" />
        </mxCell>
        <mxCell id="4CdSf621KdFMTNXyTcWF-33" value="User 2" style="rounded=0;whiteSpace=wrap;html=1;fillColor=#f5f5f5;fontColor=#333333;strokeColor=#666666;" vertex="1" parent="1">
          <mxGeometry x="420" y="480" width="120" height="30" as="geometry" />
        </mxCell>
        <mxCell id="4CdSf621KdFMTNXyTcWF-34" value="User n" style="rounded=0;whiteSpace=wrap;html=1;fillColor=#f5f5f5;fontColor=#333333;strokeColor=#666666;" vertex="1" parent="1">
          <mxGeometry x="420" y="560" width="120" height="30" as="geometry" />
        </mxCell>
        <mxCell id="4CdSf621KdFMTNXyTcWF-35" value="" style="shape=image;html=1;verticalAlign=top;verticalLabelPosition=bottom;labelBackgroundColor=#ffffff;imageAspect=0;aspect=fixed;image=https://cdn1.iconfinder.com/data/icons/ionicons-sharp-vol-1/512/ellipsis-vertical-sharp-128.png" vertex="1" parent="1">
          <mxGeometry x="465" y="520" width="30" height="30" as="geometry" />
        </mxCell>
        <mxCell id="4CdSf621KdFMTNXyTcWF-36" value="User reviews" style="text;html=1;align=center;verticalAlign=middle;resizable=0;points=[];autosize=1;strokeColor=none;fillColor=none;fontSize=14;" vertex="1" parent="1">
          <mxGeometry x="430" y="600" width="100" height="30" as="geometry" />
        </mxCell>
        <mxCell id="4CdSf621KdFMTNXyTcWF-40" value="Filtering" style="text;html=1;align=center;verticalAlign=middle;resizable=0;points=[];autosize=1;strokeColor=none;fillColor=none;fontSize=14;" vertex="1" parent="1">
          <mxGeometry x="445" y="630" width="70" height="30" as="geometry" />
        </mxCell>
        <mxCell id="4CdSf621KdFMTNXyTcWF-50" value="&lt;font style=&quot;font-size: 15px;&quot;&gt;Tokenisation and Lemmatisation&lt;/font&gt;" style="rounded=0;whiteSpace=wrap;html=1;" vertex="1" parent="1">
          <mxGeometry x="620" y="345" width="230" height="90" as="geometry" />
        </mxCell>
      </root>
    </mxGraphModel>
  </diagram>
</mxfile>
